<svg width="37" height="36" viewBox="0 0 37 36" fill="none" xmlns="http://www.w3.org/2000/svg">
<path d="M18.9258 35.2559C16.7293 34.994 14.5483 34.4209 12.3827 33.5367C10.2172 32.651 8.25516 31.3613 6.49656 29.6675C4.73654 27.9722 3.27503 25.8236 2.11202 23.2216C0.948999 20.6196 0.271746 17.4826 0.0802568 13.8105L0 12.104L1.62414 12.1863C3.0941 12.2666 4.84003 12.6376 6.86193 13.2994C8.88524 13.9583 10.6023 14.7996 12.0131 15.8232C12.192 13.1762 12.8467 10.3883 13.9773 7.45964C15.1079 4.53098 16.5138 2.04443 18.195 0C19.8762 2.04443 21.2821 4.54435 22.4127 7.49976C23.5433 10.4552 24.1981 13.2571 24.3769 15.9056C25.706 14.9622 27.3548 14.1273 29.3232 13.4007C31.2916 12.6742 33.0791 12.2687 34.6856 12.1842L36.39 12.104L36.3098 13.8907C36.2013 16.8053 35.748 19.4214 34.9496 21.739C34.1513 24.0565 33.0213 26.0897 31.5598 27.8385C30.0983 29.5872 28.3193 31.0727 26.2228 32.2948C24.1262 33.517 21.6939 34.504 18.9258 35.2559ZM18.9004 33.1185C18.5132 27.2753 16.78 22.8576 13.7006 19.8656C10.6213 16.8736 6.79294 15.0256 2.2155 14.3216C2.60271 20.3408 4.38947 24.8288 7.5758 27.7857C10.7621 30.7425 14.537 32.5201 18.9004 33.1185ZM18.195 22.4697C18.6695 21.5869 19.2785 20.6639 20.0219 19.7009C20.7639 18.7378 21.5278 17.9303 22.3134 17.2784C22.2979 15.1101 21.929 12.8467 21.2067 10.4883C20.4844 8.12985 19.4805 5.8714 18.195 3.71292C16.9095 5.8714 15.9056 8.12985 15.1833 10.4883C14.461 12.8467 14.0921 15.1101 14.0766 17.2784C14.8622 17.9317 15.6219 18.7392 16.3554 19.7009C17.089 20.6639 17.7022 21.5862 18.195 22.4676M21.0145 32.4131C22.6675 31.8541 24.2523 31.1156 25.7687 30.1976C27.2865 29.281 28.6453 28.1067 29.8449 26.6747C31.0459 25.2442 32.0308 23.5173 32.7996 21.494C33.567 19.4721 34.0246 17.0813 34.1724 14.3216C30.7552 14.8144 27.716 16.0161 25.0548 17.9268C22.3937 19.8374 20.4753 22.1804 19.2996 24.9556C19.722 26.082 20.0691 27.2189 20.3408 28.3665C20.6126 29.514 20.8371 30.8629 21.0145 32.4131Z" fill="#0D4DA1"/>
</svg>
