<svg width="231" height="58" viewBox="0 0 231 58" fill="none" xmlns="http://www.w3.org/2000/svg">
<path d="M28.6063 55.4814C13.7609 55.4814 1.68317 43.4141 1.68317 28.5813C1.68317 13.7487 13.7609 1.68164 28.6063 1.68164C43.4518 1.68164 55.5293 13.7487 55.5293 28.5813C55.5293 43.4141 43.4518 55.4814 28.6063 55.4814Z" fill="#274896"/>
<path d="M28.6065 -6.26301e-05C12.8075 -6.26301e-05 0 12.7966 0 28.5818C0 44.3672 12.8075 57.1636 28.6065 57.1636C44.4055 57.1636 57.2129 44.3672 57.2129 28.5818C57.2129 12.7966 44.4055 -6.26301e-05 28.6065 -6.26301e-05ZM28.6065 3.36377C35.3483 3.36377 41.6864 5.98692 46.4537 10.7499C51.2208 15.5131 53.8462 21.8459 53.8462 28.5818C53.8462 35.3178 51.2208 41.6506 46.4537 46.4136C41.6864 51.1766 35.3483 53.7997 28.6065 53.7997C21.8646 53.7997 15.5265 51.1766 10.7592 46.4136C5.99214 41.6506 3.36673 35.3178 3.36673 28.5818C3.36673 21.8459 5.99214 15.5131 10.7592 10.7499C15.5265 5.98692 21.8646 3.36377 28.6065 3.36377Z" fill="#F0801B"/>
<path d="M26.2508 33.8512C25.3043 36.9749 22.8628 39.39 19.8788 40.1542L19.8754 40.1552C18.7005 40.4712 17.447 40.5267 16.3509 40.3169C15.924 40.2364 15.5054 40.0957 15.1021 39.8969C14.3429 39.5384 13.7158 39.0094 13.2379 38.3251C12.7542 37.6328 12.4329 36.8639 12.2828 36.0402C12.1322 35.2131 12.1492 34.3747 12.3335 33.5478C12.5145 32.7325 12.8737 32.0226 13.3962 31.4419C14.2061 30.5753 15.2079 29.9155 16.3736 29.4812C17.5863 29.0302 18.8101 28.6009 20.0101 28.2054C20.1033 28.1745 20.1957 28.1422 20.2883 28.1102L20.2843 28.1125L22.8407 27.3351C23.7716 27.0397 24.7814 27.444 25.2506 28.2998C26.0153 28.0555 26.5712 27.3391 26.5712 26.4947V21.3239L26.5744 21.2541C26.5769 21.2127 26.5792 21.1713 26.5792 21.1292C26.5792 17.4626 23.6359 14.4705 19.9863 14.3868L19.9861 14.3791L19.9783 14.3795L19.9421 14.378C18.9338 14.378 17.9019 14.5222 16.8748 14.8067C15.8415 15.0941 14.8767 15.548 14.0077 16.156C13.1382 16.7655 12.3506 17.5343 11.6669 18.4413C10.9774 19.3556 10.4623 20.4543 10.1359 21.7065L10.0547 22.0192L11.4917 22.2853L11.564 22.0171C11.8342 21.0142 12.2536 20.1257 12.8104 19.376C13.3713 18.62 14.0175 17.9639 14.7315 17.4261C15.4425 16.8916 16.2219 16.4852 17.048 16.2182C17.8785 15.9506 18.7101 15.815 19.5194 15.815C20.9238 15.815 22.205 16.251 23.327 17.1109C24.5205 18.0269 25.0474 19.0138 25.27 20.7356L25.2889 20.9852L25.2891 21.4177C25.2506 22.3005 25.0457 23.0567 24.6798 23.6643C24.2638 24.3543 23.6988 24.9371 23.001 25.3964C22.2881 25.8667 21.4586 26.2593 20.5353 26.5635C19.5971 26.8725 18.5948 27.1879 17.556 27.5011C16.5306 27.8104 15.4953 28.1455 14.4786 28.4975C13.457 28.8519 12.4869 29.2997 11.5954 29.8287C10.3125 30.5891 9.39082 31.5935 8.85656 32.8139C8.32546 34.0266 8.14008 35.2581 8.30568 36.4742C8.4717 37.695 9.00217 38.8286 9.88257 39.843C10.7661 40.8614 12.0093 41.5786 13.5797 41.9751C14.4447 42.1891 15.3581 42.2974 16.2951 42.2974C16.6017 42.2974 16.9611 42.2686 17.278 42.2429L17.3102 42.2406L17.311 42.2459C24.1657 41.4768 26.4967 37.3395 27.245 34.0041L27.3273 33.6378H26.3154L26.2508 33.8512Z" fill="white"/>
<path d="M48.5023 32.8137C47.968 31.5932 47.0464 30.5889 45.7633 29.8285C44.8719 29.2997 43.9019 28.8517 42.8803 28.4973C41.8633 28.1453 40.8283 27.8104 39.8029 27.5011C38.764 27.1879 37.7616 26.8723 36.8233 26.5633C35.9002 26.2591 35.0707 25.8665 34.3578 25.3962C33.6599 24.9369 33.0949 24.3541 32.6789 23.6641C32.313 23.0565 32.1082 22.3005 32.0695 21.4175L32.0699 20.985L32.0887 20.7354C32.3115 19.0136 32.8384 18.0267 34.0319 17.1107C35.1538 16.251 36.4351 15.8148 37.8394 15.8148C38.6487 15.8148 39.4803 15.9504 40.3108 16.218C41.1367 16.4852 41.9163 16.8914 42.6271 17.4258C43.3411 17.9636 43.9875 18.6198 44.5485 19.3758C45.1053 20.1255 45.5244 21.014 45.7948 22.0171L45.8672 22.2851L47.3042 22.0189L47.2227 21.7063C46.8966 20.4541 46.3815 19.3556 45.6919 18.4411C45.0083 17.5341 44.2207 16.7653 43.351 16.156C42.4822 15.5478 41.5172 15.0939 40.484 14.8065C39.4569 14.522 38.425 14.3778 37.4165 14.3778L37.3805 14.3793L37.3727 14.3791L37.3725 14.3866C33.723 14.4703 30.7796 17.4626 30.7796 21.129C30.7796 21.1711 30.7817 21.2127 30.7843 21.2541L30.7876 21.3237V26.4947C30.7876 27.3391 31.3433 28.0553 32.1082 28.2996C32.5772 27.4437 33.5873 27.0395 34.518 27.3348L38.1555 28.4891L38.089 28.4531C39.05 28.7783 40.0207 29.1225 40.985 29.4812C42.151 29.9153 43.1528 30.5751 43.9627 31.4417C44.4852 32.0223 44.8441 32.7323 45.0253 33.5478C45.2096 34.3745 45.2265 35.2129 45.076 36.04C44.9258 36.8637 44.6047 37.6326 44.1209 38.3249C43.6431 39.0092 43.0158 39.5382 42.2566 39.8966C41.8532 40.0955 41.4347 40.2362 41.0077 40.3167C39.9119 40.5265 38.6584 40.471 37.4834 40.155L37.4798 40.154C34.4961 39.3898 32.0546 36.9747 31.1081 33.851L31.0435 33.6376H30.0314L30.1139 34.0041C30.8621 37.3393 33.1929 41.4766 40.0476 42.2456L40.0484 42.2404L40.0808 42.2429C40.3977 42.2683 40.7569 42.2974 41.0637 42.2974C42.0005 42.2974 42.9139 42.1889 43.7792 41.9749C45.3496 41.5786 46.5925 40.8612 47.4761 39.8428C48.3567 38.8284 48.8872 37.6948 49.053 36.4742C49.2188 35.2579 49.0334 34.0263 48.5023 32.8137Z" fill="white"/>
<path d="M74.9869 47.2435C75.4077 47.2435 75.7806 47.1495 76.1054 46.9611C76.4303 46.7732 76.687 46.5074 76.8754 46.1645C77.0637 45.8214 77.1578 45.4251 77.1578 44.9748C77.1578 44.5175 77.0637 44.1191 76.8754 43.7796C76.687 43.4405 76.4303 43.1766 76.1054 42.9885C75.7806 42.8003 75.4115 42.7063 74.998 42.7063C74.5843 42.7063 74.2152 42.8003 73.8904 42.9885C73.5655 43.1766 73.3071 43.4405 73.115 43.7796C72.923 44.1191 72.8271 44.5175 72.8271 44.9748C72.8271 45.4251 72.923 45.8214 73.115 46.1645C73.3071 46.5074 73.5636 46.7732 73.8849 46.9611C74.206 47.1495 74.5734 47.2435 74.9869 47.2435ZM74.9869 47.9404C74.4183 47.9404 73.9127 47.8134 73.4695 47.5588C73.0266 47.3042 72.6758 46.9521 72.4174 46.5022C72.1588 46.0521 72.0296 45.5431 72.0296 44.9748C72.0296 44.392 72.1588 43.8792 72.4174 43.4367C72.6758 42.9939 73.0266 42.6474 73.4695 42.3964C73.9127 42.1456 74.4183 42.0201 74.9869 42.0201C75.5628 42.0201 76.0741 42.1475 76.521 42.4021C76.9675 42.6565 77.3183 43.0034 77.5731 43.4422C77.8277 43.8811 77.9553 44.392 77.9553 44.9748C77.9553 45.5502 77.8277 46.0613 77.5731 46.5074C77.3183 46.954 76.9656 47.3042 76.5153 47.5588C76.0648 47.8134 75.5554 47.9404 74.9869 47.9404Z" fill="white"/>
<path d="M87.1368 47.8857V42.076H87.8901V43.6585L87.8125 43.3818C87.9747 42.9392 88.2481 42.6016 88.6321 42.3693C89.0159 42.1367 89.4921 42.0207 90.0608 42.0207V42.7841C90.0312 42.7841 90.0017 42.7826 89.9723 42.7786C89.9426 42.7748 89.9131 42.7731 89.8837 42.7731C89.2707 42.7731 88.7907 42.9594 88.4438 43.332C88.0968 43.7045 87.9232 44.2339 87.9232 44.9201V47.8857H87.1368Z" fill="white"/>
<path d="M82.0313 47.9404C81.5364 47.9404 81.1046 47.8486 80.7353 47.664C80.366 47.4796 80.0801 47.2029 79.877 46.8339C79.6737 46.465 79.5723 46.0039 79.5723 45.4506V42.0756H80.3589V45.3621C80.3589 45.9818 80.5121 46.4484 80.8184 46.762C81.1248 47.0757 81.5549 47.2323 82.1087 47.2323C82.5148 47.2323 82.8675 47.1493 83.1665 46.9832C83.4655 46.8173 83.6945 46.5758 83.8533 46.2585C84.012 45.9413 84.0915 45.5614 84.0915 45.1186V42.0756H84.8777V47.8851H84.1246V46.2915L84.2464 46.5793C84.0619 47.0074 83.7757 47.341 83.3881 47.5809C83.0003 47.8208 82.5481 47.9404 82.0313 47.9404Z" fill="white"/>
<path d="M95.798 47.8857L93.605 42.076H94.3581L96.3519 47.4653H96.0085L98.0575 42.076H98.7332L100.76 47.4653H100.417L102.444 42.076H103.163L100.959 47.8857H100.217L98.268 42.8175H98.5005L96.54 47.8857H95.798Z" fill="white"/>
<path d="M106.619 47.2435C107.04 47.2435 107.413 47.1495 107.738 46.9611C108.063 46.7732 108.319 46.5074 108.508 46.1645C108.696 45.8214 108.79 45.4251 108.79 44.9748C108.79 44.5175 108.696 44.1191 108.508 43.7796C108.319 43.4405 108.063 43.1766 107.738 42.9885C107.413 42.8003 107.044 42.7063 106.63 42.7063C106.217 42.7063 105.848 42.8003 105.523 42.9885C105.198 43.1766 104.939 43.4405 104.747 43.7796C104.555 44.1191 104.459 44.5175 104.459 44.9748C104.459 45.4251 104.555 45.8214 104.747 46.1645C104.939 46.5074 105.196 46.7732 105.517 46.9611C105.838 47.1495 106.206 47.2435 106.619 47.2435ZM106.619 47.9404C106.051 47.9404 105.545 47.8134 105.102 47.5588C104.659 47.3042 104.308 46.9521 104.05 46.5022C103.791 46.0521 103.662 45.5431 103.662 44.9748C103.662 44.392 103.791 43.8792 104.05 43.4367C104.308 42.9939 104.659 42.6474 105.102 42.3964C105.545 42.1456 106.051 42.0201 106.619 42.0201C107.195 42.0201 107.706 42.1475 108.153 42.4021C108.6 42.6565 108.951 43.0034 109.206 43.4422C109.46 43.8811 109.588 44.392 109.588 44.9748C109.588 45.5502 109.46 46.0613 109.206 46.5074C108.951 46.954 108.598 47.3042 108.148 47.5588C107.697 47.8134 107.188 47.9404 106.619 47.9404Z" fill="white"/>
<path d="M111.26 47.8857V42.076H112.013V43.6585L111.936 43.3818C112.098 42.9392 112.371 42.6016 112.755 42.3693C113.139 42.1367 113.615 42.0207 114.184 42.0207V42.7841C114.154 42.7841 114.125 42.7826 114.095 42.7786C114.066 42.7748 114.036 42.7731 114.007 42.7731C113.394 42.7731 112.914 42.9594 112.567 43.332C112.22 43.7045 112.046 44.2339 112.046 44.9201V47.8857H111.26Z" fill="white"/>
<path d="M115.679 39.6744H116.465V47.8857H115.679V39.6744Z" fill="white"/>
<path d="M123.288 47.8851V46.1368L123.366 44.9637L123.255 43.7905V39.6738H124.041V47.8851H123.288ZM121.095 47.2433C121.508 47.2433 121.88 47.1493 122.208 46.9609C122.537 46.773 122.795 46.5072 122.984 46.1643C123.172 45.8214 123.266 45.4249 123.266 44.9746C123.266 44.5173 123.172 44.1189 122.984 43.7796C122.795 43.4403 122.537 43.1766 122.208 42.9882C121.88 42.8001 121.508 42.7061 121.095 42.7061C120.689 42.7061 120.324 42.8001 119.999 42.9882C119.674 43.1766 119.415 43.4403 119.223 43.7796C119.031 44.1189 118.935 44.5173 118.935 44.9746C118.935 45.4249 119.031 45.8214 119.223 46.1643C119.415 46.5072 119.674 46.773 119.999 46.9609C120.324 47.1493 120.689 47.2433 121.095 47.2433ZM121.04 47.9404C120.486 47.9404 119.989 47.8151 119.55 47.5643C119.111 47.3135 118.765 46.9649 118.514 46.5184C118.263 46.0722 118.138 45.5576 118.138 44.9746C118.138 44.3847 118.263 43.8681 118.514 43.4253C118.765 42.9828 119.111 42.638 119.55 42.3907C119.989 42.1435 120.486 42.0201 121.04 42.0201C121.549 42.0201 122.005 42.1345 122.408 42.363C122.81 42.5917 123.131 42.9256 123.371 43.3646C123.611 43.8036 123.731 44.3403 123.731 44.9746C123.731 45.6019 123.613 46.1368 123.377 46.5793C123.14 47.0221 122.821 47.3595 122.419 47.5919C122.016 47.8244 121.557 47.9404 121.04 47.9404Z" fill="white"/>
<path d="M129.269 47.8857V42.076H130.022V43.6585L129.945 43.3818C130.107 42.9392 130.38 42.6016 130.764 42.3693C131.148 42.1367 131.624 42.0207 132.193 42.0207V42.7841C132.163 42.7841 132.134 42.7826 132.104 42.7786C132.075 42.7748 132.045 42.7731 132.016 42.7731C131.403 42.7731 130.923 42.9594 130.576 43.332C130.229 43.7045 130.055 44.2339 130.055 44.9201V47.8857H129.269Z" fill="white"/>
<path d="M136.103 47.9404C135.497 47.9404 134.966 47.8134 134.508 47.5588C134.05 47.3042 133.692 46.954 133.434 46.5074C133.175 46.0613 133.046 45.5502 133.046 44.9748C133.046 44.3994 133.169 43.8902 133.417 43.4476C133.664 43.0049 134.004 42.6563 134.436 42.4019C134.868 42.1473 135.353 42.0201 135.893 42.0201C136.439 42.0201 136.924 42.1437 137.349 42.391C137.773 42.638 138.108 42.9849 138.351 43.431C138.595 43.8776 138.717 44.392 138.717 44.9748C138.717 45.0118 138.715 45.0505 138.711 45.0908C138.707 45.1316 138.706 45.1741 138.706 45.2183H133.644V44.6317H138.285L137.975 44.864C137.975 44.4435 137.884 44.0693 137.703 43.7407C137.522 43.4127 137.277 43.1562 136.967 42.9716C136.657 42.7875 136.298 42.6952 135.893 42.6952C135.494 42.6952 135.135 42.7875 134.818 42.9716C134.501 43.1562 134.253 43.4144 134.076 43.7464C133.899 44.0783 133.81 44.4584 133.81 44.8863V45.008C133.81 45.4506 133.908 45.8399 134.104 46.1753C134.299 46.5112 134.573 46.773 134.923 46.9611C135.274 47.1493 135.675 47.2435 136.125 47.2435C136.48 47.2435 136.81 47.1808 137.116 47.0553C137.423 46.9298 137.687 46.7381 137.908 46.4799L138.351 46.9889C138.093 47.2986 137.77 47.5349 137.382 47.6972C136.995 47.8595 136.568 47.9404 136.103 47.9404Z" fill="white"/>
<path d="M144.144 39.6744H144.93V47.8857H144.144V39.6744ZM140.522 47.8857V41.3456C140.522 40.8293 140.673 40.4124 140.976 40.0949C141.279 39.7781 141.714 39.6193 142.283 39.6193C142.504 39.6193 142.719 39.6488 142.925 39.7079C143.132 39.7669 143.305 39.859 143.446 39.9843L143.18 40.5709C143.069 40.4752 142.94 40.4031 142.792 40.3552C142.645 40.3072 142.486 40.2833 142.316 40.2833C141.984 40.2833 141.729 40.3754 141.552 40.5597C141.375 40.7443 141.286 41.0174 141.286 41.3788V42.2642L141.308 42.6293V47.8857H140.522ZM139.481 42.076H143.08V42.7288H139.481V42.076Z" fill="white"/>
<path d="M149.671 47.9404C149.065 47.9404 148.534 47.8134 148.076 47.5588C147.618 47.3042 147.26 46.954 147.001 46.5074C146.743 46.0613 146.614 45.5502 146.614 44.9748C146.614 44.3994 146.737 43.8902 146.985 43.4476C147.232 43.0049 147.572 42.6563 148.004 42.4019C148.436 42.1473 148.921 42.0201 149.46 42.0201C150.006 42.0201 150.492 42.1437 150.917 42.391C151.341 42.638 151.675 42.9849 151.919 43.431C152.163 43.8776 152.284 44.392 152.284 44.9748C152.284 45.0118 152.283 45.0505 152.279 45.0908C152.275 45.1316 152.274 45.1741 152.274 45.2183H147.212V44.6317H151.852L151.543 44.864C151.543 44.4435 151.452 44.0693 151.271 43.7407C151.09 43.4127 150.845 43.1562 150.534 42.9716C150.224 42.7875 149.866 42.6952 149.46 42.6952C149.061 42.6952 148.703 42.7875 148.386 42.9716C148.068 43.1562 147.821 43.4144 147.644 43.7464C147.466 44.0783 147.378 44.4584 147.378 44.8863V45.008C147.378 45.4506 147.476 45.8399 147.671 46.1753C147.867 46.5112 148.14 46.773 148.491 46.9611C148.842 47.1493 149.242 47.2435 149.693 47.2435C150.047 47.2435 150.377 47.1808 150.684 47.0553C150.99 46.9298 151.254 46.7381 151.476 46.4799L151.919 46.9889C151.66 47.2986 151.337 47.5349 150.95 47.6972C150.562 47.8595 150.136 47.9404 149.671 47.9404Z" fill="white"/>
<path d="M156.371 47.9404C155.795 47.9404 155.28 47.8134 154.826 47.5588C154.372 47.3042 154.016 46.954 153.757 46.5074C153.499 46.0613 153.37 45.5502 153.37 44.9748C153.37 44.392 153.499 43.8792 153.757 43.4365C154.016 42.9939 154.372 42.6472 154.826 42.3964C155.28 42.1456 155.795 42.0201 156.371 42.0201C156.866 42.0201 157.313 42.116 157.711 42.3077C158.11 42.4996 158.424 42.7875 158.653 43.1709L158.066 43.5693C157.866 43.2744 157.619 43.0568 157.324 42.9166C157.028 42.7765 156.707 42.7063 156.36 42.7063C155.946 42.7063 155.574 42.8003 155.242 42.9882C154.909 43.1766 154.647 43.4405 154.455 43.7796C154.263 44.1189 154.167 44.5175 154.167 44.9748C154.167 45.4323 154.263 45.8307 154.455 46.17C154.647 46.5093 154.909 46.773 155.242 46.9611C155.574 47.1493 155.946 47.2435 156.36 47.2435C156.707 47.2435 157.028 47.1735 157.324 47.0332C157.619 46.8932 157.866 46.679 158.066 46.3914L158.653 46.7896C158.424 47.1659 158.11 47.4518 157.711 47.6471C157.313 47.8429 156.866 47.9404 156.371 47.9404Z" fill="white"/>
<path d="M162.164 47.9404C161.617 47.9404 161.196 47.7931 160.901 47.4981C160.606 47.2029 160.458 46.786 160.458 46.2474V40.7917H161.245V46.203C161.245 46.5425 161.331 46.8045 161.505 46.9889C161.678 47.1735 161.927 47.2656 162.252 47.2656C162.599 47.2656 162.887 47.1659 163.116 46.9666L163.393 47.5311C163.238 47.6713 163.052 47.7746 162.834 47.8408C162.616 47.9074 162.393 47.9404 162.164 47.9404ZM159.417 42.0756H163.017V42.7284H159.417V42.0756Z" fill="white"/>
<path d="M166.45 47.9404C165.97 47.9404 165.516 47.8725 165.087 47.7357C164.659 47.5994 164.323 47.4279 164.08 47.2212L164.434 46.6016C164.67 46.7786 164.973 46.9317 165.342 47.0606C165.711 47.1901 166.099 47.2544 166.505 47.2544C167.059 47.2544 167.458 47.1678 167.701 46.9944C167.945 46.8211 168.067 46.5905 168.067 46.3027C168.067 46.0889 167.998 45.9211 167.862 45.7991C167.725 45.6774 167.546 45.5853 167.325 45.5225C167.103 45.4598 166.856 45.4062 166.583 45.3621C166.309 45.3177 166.038 45.2662 165.769 45.2071C165.499 45.1482 165.253 45.0616 165.032 44.9473C164.811 44.8329 164.631 44.676 164.495 44.4767C164.358 44.2776 164.29 44.0119 164.29 43.6799C164.29 43.3629 164.379 43.0789 164.556 42.828C164.733 42.5772 164.993 42.3798 165.337 42.2358C165.68 42.092 166.099 42.0201 166.594 42.0201C166.97 42.0201 167.347 42.0699 167.724 42.1696C168.1 42.269 168.41 42.4 168.654 42.5623L168.31 43.193C168.052 43.016 167.775 42.8888 167.48 42.8114C167.184 42.7339 166.889 42.6952 166.594 42.6952C166.069 42.6952 165.684 42.7854 165.436 42.9662C165.189 43.147 165.065 43.3776 165.065 43.6579C165.065 43.8792 165.134 44.0527 165.27 44.178C165.407 44.3035 165.587 44.4013 165.813 44.4713C166.038 44.5415 166.285 44.5985 166.555 44.6426C166.824 44.687 167.094 44.7406 167.364 44.8032C167.633 44.8661 167.88 44.9508 168.106 45.0578C168.331 45.1649 168.512 45.3162 168.648 45.5113C168.785 45.7071 168.853 45.9636 168.853 46.2806C168.853 46.6201 168.759 46.9132 168.571 47.1604C168.383 47.4077 168.109 47.5994 167.751 47.7357C167.393 47.8725 166.959 47.9404 166.45 47.9404Z" fill="white"/>
<path d="M174.923 48.0515L172.243 42.0759H173.062L175.432 47.4097L174.923 48.0515ZM173.372 50.0879C173.099 50.0879 172.839 50.0435 172.591 49.955C172.344 49.8665 172.132 49.7336 171.955 49.5566L172.32 48.97C172.468 49.1101 172.628 49.2192 172.802 49.2966C172.975 49.3741 173.169 49.4128 173.383 49.4128C173.642 49.4128 173.865 49.3409 174.053 49.1969C174.242 49.0531 174.421 48.8004 174.591 48.439L174.967 47.5869L175.056 47.4652L177.448 42.0759H178.224L175.31 48.5828C175.148 48.9589 174.969 49.2579 174.773 49.4792C174.578 49.7006 174.365 49.8573 174.137 49.9493C173.908 50.0416 173.653 50.0879 173.372 50.0879Z" fill="white"/>
<path d="M181.601 47.2435C182.023 47.2435 182.395 47.1495 182.72 46.9611C183.045 46.7732 183.302 46.5074 183.49 46.1645C183.678 45.8214 183.772 45.4251 183.772 44.9748C183.772 44.5175 183.678 44.1191 183.49 43.7796C183.302 43.4405 183.045 43.1766 182.72 42.9885C182.395 42.8003 182.026 42.7063 181.613 42.7063C181.199 42.7063 180.83 42.8003 180.505 42.9885C180.18 43.1766 179.922 43.4405 179.73 43.7796C179.538 44.1191 179.442 44.5175 179.442 44.9748C179.442 45.4251 179.538 45.8214 179.73 46.1645C179.922 46.5074 180.178 46.7732 180.5 46.9611C180.821 47.1495 181.188 47.2435 181.601 47.2435ZM181.601 47.9404C181.033 47.9404 180.527 47.8134 180.084 47.5588C179.641 47.3042 179.29 46.9521 179.032 46.5022C178.773 46.0521 178.644 45.5431 178.644 44.9748C178.644 44.392 178.773 43.8792 179.032 43.4367C179.29 42.9939 179.641 42.6474 180.084 42.3964C180.527 42.1456 181.033 42.0201 181.601 42.0201C182.177 42.0201 182.689 42.1475 183.136 42.4021C183.582 42.6565 183.933 43.0034 184.188 43.4422C184.443 43.8811 184.57 44.392 184.57 44.9748C184.57 45.5502 184.443 46.0613 184.188 46.5074C183.933 46.954 183.58 47.3042 183.13 47.5588C182.679 47.8134 182.17 47.9404 181.601 47.9404Z" fill="white"/>
<path d="M188.646 47.9404C188.151 47.9404 187.719 47.8486 187.35 47.664C186.98 47.4796 186.695 47.2029 186.491 46.8339C186.288 46.465 186.187 46.0039 186.187 45.4506V42.0756H186.973V45.3621C186.973 45.9818 187.126 46.4484 187.433 46.762C187.739 47.0757 188.169 47.2323 188.723 47.2323C189.129 47.2323 189.482 47.1493 189.781 46.9832C190.08 46.8173 190.309 46.5758 190.468 46.2585C190.626 45.9413 190.706 45.5614 190.706 45.1186V42.0756H191.492V47.8851H190.739V46.2915L190.861 46.5793C190.676 47.0074 190.39 47.341 190.002 47.5809C189.615 47.8208 189.162 47.9404 188.646 47.9404Z" fill="white"/>
<path d="M193.751 47.8857V42.076H194.505V43.6585L194.427 43.3818C194.589 42.9392 194.863 42.6016 195.247 42.3693C195.631 42.1367 196.107 42.0207 196.675 42.0207V42.7841C196.646 42.7841 196.616 42.7826 196.587 42.7786C196.557 42.7748 196.528 42.7731 196.499 42.7731C195.886 42.7731 195.405 42.9594 195.059 43.332C194.711 43.7045 194.538 44.2339 194.538 44.9201V47.8857H193.751Z" fill="white"/>
<path d="M202.413 47.8857L200.219 42.076H200.973L202.967 47.4653H202.623L204.672 42.076H205.348L207.375 47.4653H207.031L209.058 42.076H209.778L207.574 47.8857H206.832L204.882 42.8175H205.115L203.155 47.8857H202.413Z" fill="white"/>
<path d="M213.234 47.2435C213.655 47.2435 214.027 47.1495 214.352 46.9611C214.677 46.7732 214.934 46.5074 215.122 46.1645C215.311 45.8214 215.405 45.4251 215.405 44.9748C215.405 44.5175 215.311 44.1191 215.122 43.7796C214.934 43.4405 214.677 43.1766 214.352 42.9885C214.027 42.8003 213.658 42.7063 213.245 42.7063C212.831 42.7063 212.462 42.8003 212.137 42.9885C211.812 43.1766 211.554 43.4405 211.362 43.7796C211.17 44.1191 211.074 44.5175 211.074 44.9748C211.074 45.4251 211.17 45.8214 211.362 46.1645C211.554 46.5074 211.811 46.7732 212.132 46.9611C212.453 47.1495 212.82 47.2435 213.234 47.2435ZM213.234 47.9404C212.665 47.9404 212.16 47.8134 211.717 47.5588C211.274 47.3042 210.923 46.9521 210.664 46.5022C210.406 46.0521 210.277 45.5431 210.277 44.9748C210.277 44.392 210.406 43.8792 210.664 43.4367C210.923 42.9939 211.274 42.6474 211.717 42.3964C212.16 42.1456 212.665 42.0201 213.234 42.0201C213.81 42.0201 214.321 42.1475 214.768 42.4021C215.215 42.6565 215.565 43.0034 215.82 43.4422C216.075 43.8811 216.202 44.392 216.202 44.9748C216.202 45.5502 216.075 46.0613 215.82 46.5074C215.565 46.954 215.212 47.3042 214.762 47.5588C214.312 47.8134 213.802 47.9404 213.234 47.9404Z" fill="white"/>
<path d="M217.874 47.8857V42.076H218.627V43.6585L218.55 43.3818C218.712 42.9392 218.986 42.6016 219.369 42.3693C219.753 42.1367 220.23 42.0207 220.798 42.0207V42.7841C220.769 42.7841 220.739 42.7826 220.71 42.7786C220.68 42.7748 220.65 42.7731 220.621 42.7731C220.008 42.7731 219.528 42.9594 219.181 43.332C218.834 43.7045 218.661 44.2339 218.661 44.9201V47.8857H217.874Z" fill="white"/>
<path d="M222.293 39.6744H223.08V47.8857H222.293V39.6744Z" fill="white"/>
<path d="M229.903 47.8851V46.1368L229.981 44.9637L229.87 43.7905V39.6738H230.656V47.8851H229.903ZM227.71 47.2433C228.123 47.2433 228.495 47.1493 228.823 46.9609C229.152 46.773 229.41 46.5072 229.598 46.1643C229.787 45.8214 229.881 45.4249 229.881 44.9746C229.881 44.5173 229.787 44.1189 229.598 43.7796C229.41 43.4403 229.152 43.1766 228.823 42.9882C228.495 42.8001 228.123 42.7061 227.71 42.7061C227.304 42.7061 226.938 42.8001 226.613 42.9882C226.288 43.1766 226.03 43.4403 225.838 43.7796C225.646 44.1189 225.55 44.5173 225.55 44.9746C225.55 45.4249 225.646 45.8214 225.838 46.1643C226.03 46.5072 226.288 46.773 226.613 46.9609C226.938 47.1493 227.304 47.2433 227.71 47.2433ZM227.655 47.9404C227.101 47.9404 226.604 47.8151 226.165 47.5643C225.725 47.3135 225.38 46.9649 225.129 46.5184C224.878 46.0722 224.753 45.5576 224.753 44.9746C224.753 44.3847 224.878 43.8681 225.129 43.4253C225.38 42.9828 225.725 42.638 226.165 42.3907C226.604 42.1435 227.101 42.0201 227.655 42.0201C228.164 42.0201 228.62 42.1345 229.022 42.363C229.425 42.5917 229.746 42.9256 229.986 43.3646C230.226 43.8036 230.346 44.3403 230.346 44.9746C230.346 45.6019 230.228 46.1368 229.992 46.5793C229.755 47.0221 229.436 47.3595 229.033 47.5919C228.631 47.8244 228.172 47.9404 227.655 47.9404Z" fill="white"/>
<path d="M136.31 13.8228C136.31 12.4871 137.379 11.4187 138.716 11.4187C140.052 11.4187 141.122 12.4871 141.122 13.8228C141.122 15.1584 140.052 16.2271 138.716 16.2271C137.379 16.2271 136.31 15.1584 136.31 13.8228Z" fill="#F0801B"/>
<path d="M74.6252 29.1831C74.6252 30.3518 75.6611 31.1867 77.2319 31.1867C79.2372 31.1867 81.3092 29.6839 81.5767 27.7472C79.1703 26.5118 74.6252 26.6787 74.6252 29.1831ZM81.5767 33.858V31.9213C80.6407 33.0231 79.2038 34.125 76.9312 34.125C73.7564 34.125 71.4169 32.0548 71.4169 29.083C71.4169 24.7086 76.6972 22.9724 81.4763 25.1093C81.3761 23.3397 80.6075 21.5699 78.1009 21.5699C76.7976 21.5699 75.5275 21.9706 74.6252 22.5383L73.2884 20.2343C74.2576 19.4995 76.0289 18.6314 78.2346 18.6314C82.178 18.6314 84.7849 20.8354 84.7849 26.8457V33.858H81.5767Z" fill="white"/>
<path d="M97.9734 29.3835C97.9734 32.2886 95.4001 34.125 92.6596 34.125C89.3175 34.125 87.3791 32.2217 86.7443 31.5874L88.3483 29.25C89.2842 30.1515 90.5207 31.1533 92.4591 31.1867C94.0631 31.2201 94.7651 30.2516 94.7651 29.5504C94.7651 28.8827 94.3975 28.1813 92.6931 27.714C88.8163 26.6453 87.5464 25.51 87.5464 22.939C87.5464 20.8019 89.2173 18.6314 92.6261 18.6314C94.0631 18.6314 95.5003 19.0321 96.9375 20.1674L95.4334 22.5049C94.6982 21.9706 93.7624 21.5699 92.6261 21.5699C91.423 21.5699 90.7547 22.1376 90.7547 22.8387C90.7547 23.6736 91.3228 24.0743 93.1943 24.5082C97.1045 25.41 97.9734 27.4133 97.9734 29.3835Z" fill="white"/>
<path d="M113.235 25.978V33.8584H110.027V25.978C110.027 23.1398 109.158 21.5703 106.685 21.5703C104.746 21.5703 103.075 23.3736 103.075 26.1115V33.8584H99.8669V10.323L103.075 7.14161V20.7689C103.576 19.8008 105.047 18.6318 107.286 18.6318C111.096 18.6318 113.235 21.2365 113.235 25.978Z" fill="white"/>
<path d="M137.111 18.899H140.32V33.8584H137.111V18.899Z" fill="white"/>
<path d="M155.966 25.978V33.8584H152.757V25.978C152.757 23.1398 151.888 21.5703 149.415 21.5703C147.477 21.5703 145.806 23.3736 145.806 26.1115V33.8584H142.598V18.899H145.806V20.7689C146.307 19.8008 147.778 18.6318 150.017 18.6318C153.827 18.6318 155.966 21.2365 155.966 25.978Z" fill="white"/>
<path d="M176.059 29.3835C176.059 32.2886 173.486 34.125 170.746 34.125C167.404 34.125 165.465 32.2217 164.83 31.5874L166.434 29.25C167.37 30.1515 168.607 31.1533 170.545 31.1867C172.149 31.2201 172.851 30.2516 172.851 29.5504C172.851 28.8827 172.484 28.1813 170.779 27.714C166.902 26.6453 165.633 25.51 165.633 22.939C165.633 20.8019 167.303 18.6314 170.712 18.6314C172.149 18.6314 173.586 19.0321 175.024 20.1674L173.519 22.5049C172.784 21.9706 171.849 21.5699 170.712 21.5699C169.509 21.5699 168.841 22.1376 168.841 22.8387C168.841 23.6736 169.409 24.0743 171.28 24.5082C175.191 25.41 176.059 27.4133 176.059 29.3835Z" fill="white"/>
<path d="M191.488 25.978V33.8584H188.28V25.978C188.28 23.1398 187.411 21.5703 184.937 21.5703C182.999 21.5703 181.328 23.3736 181.328 26.1115V33.8584H178.12V10.323L181.328 7.20279V20.7689C181.829 19.8007 183.3 18.6318 185.539 18.6318C189.349 18.6318 191.488 21.2365 191.488 25.978Z" fill="white"/>
<path d="M196.612 27.5636C196.701 27.8506 196.812 28.0959 196.933 28.3732L202.755 22.0976C202.079 21.608 201.063 21.153 199.531 21.6271C197.168 22.3581 195.881 25.2033 196.612 27.5636ZM205.407 28.0585L207.855 29.748C206.939 31.5344 205.323 32.9783 203.247 33.6204C199.161 34.8846 194.813 32.5946 193.547 28.5118C192.282 24.4289 194.574 20.0843 198.66 18.8202C201.853 17.8325 204.85 19.0376 206.607 21.8846L198.826 30.3043C199.69 30.9459 201.164 31.1888 202.378 30.8135C203.878 30.3493 204.79 29.2281 205.407 28.0585Z" fill="white"/>
<path d="M231 25.978V33.8584H227.792V25.978C227.792 23.1398 226.923 21.5703 224.45 21.5703C222.511 21.5703 220.84 23.3736 220.84 26.1115V33.8584H217.632V10.2006L220.84 6.88407V20.7689C221.342 19.8007 222.812 18.6318 225.051 18.6318C228.861 18.6318 231 21.2365 231 25.978Z" fill="white"/>
<path d="M212.831 14.1752V11.9536L212.822 11.9632V7.20343L209.618 10.3425V14.1752H206.949V17.1135H209.622V33.8584H212.831V17.1135H215.59V14.1752H212.831Z" fill="white"/>
<path d="M117.569 19.0889L119.137 25.8759C119.475 27.4728 119.813 28.4452 120.089 30.0729H120.151C120.458 28.4452 120.95 27.4421 121.38 25.9068L123.317 19.0889H126.39L128.265 25.7224C128.726 27.4728 129.126 28.4452 129.464 30.0729H129.525C129.771 28.4452 130.109 27.4728 130.509 25.7224L132.169 19.0889H135.888L131.185 34.0449H127.681L125.898 27.9644C125.438 26.3981 125.099 24.9853 124.761 23.1735H124.7C124.392 25.016 123.993 26.4902 123.563 27.9644L121.657 34.0449H118.122L113.696 19.0889H117.569Z" fill="white"/>
</svg>
